<?xml version="1.0" encoding="UTF-8"?>
<svg width="36px" height="36px" viewBox="0 0 36 36" version="1.1" xmlns="http://www.w3.org/2000/svg" xmlns:xlink="http://www.w3.org/1999/xlink">
    <title>Avalanche</title>
    <g id="Avalanche" stroke="none" stroke-width="1" fill="none" fill-rule="evenodd">
        <g id="编组-5">
            <path d="M36,18 C36,27.9412835 27.9412835,36 18,36 C8.05871649,36 0,27.9412835 0,18 C0,8.05871649 8.05871649,0 18,0 C27.9412835,0 36,8.05871649 36,18" id="Fill-87" fill="#DE4949"></path>
            <path d="M12.8993238,25.1631406 L9.40599115,25.1631406 C8.67222509,25.1631406 8.3094973,25.1631406 8.08853643,25.0213737 C7.84948806,24.8668966 7.70381033,24.6102496 7.68572282,24.3272046 C7.67252383,24.0666468 7.85388773,23.7479156 8.21661552,23.111431 L16.8419109,7.90766139 C17.2090383,7.26237745 17.3948019,6.93924663 17.6289617,6.81996687 C17.8812091,6.69188778 18.1818527,6.69188778 18.4336113,6.81996687 C18.66826,6.93924663 18.8540235,7.26237745 19.221151,7.90766139 L20.9942153,11.0030689 L21.0030146,11.0187121 C21.3994731,11.7114147 21.6003911,12.0628989 21.6883843,12.4314929 C21.7856658,12.8338177 21.7856658,13.2581407 21.6883843,13.6609543 C21.5999022,14.0319926 21.4009397,14.3859211 20.9986149,15.0888895 L16.4679395,23.0977431 L16.4562071,23.1182749 C16.0573043,23.8168436 15.8549197,24.1707721 15.5748079,24.437685 C15.2692757,24.7295293 14.9026371,24.9416909 14.5003123,25.0614595 C14.1331849,25.1631406 13.7220608,25.1631406 12.8993238,25.1631406" id="Fill-88" fill="#FFFFFE"></path>
            <path d="M21.7211374,25.1631406 L26.7264876,25.1631406 C27.4651422,25.1631406 27.8366693,25.1631406 28.0576302,25.0174629 C28.2966785,24.8624969 28.4467559,24.6014503 28.4599549,24.3184053 C28.4726651,24.0661579 28.2957008,23.7601369 27.9481274,23.1603161 L27.9119524,23.098232 L25.4046332,18.8090492 L25.375791,18.7606529 C25.0238179,18.1647429 24.845876,17.8640993 24.6175824,17.7477526 C24.365335,17.6191847 24.069091,17.6191847 23.8168436,17.7477526 C23.5870835,17.8670324 23.4013199,18.180875 23.0341924,18.8134488 L20.5361614,23.1026317 L20.5273621,23.1172972 C20.1617012,23.7484044 19.9788708,24.0642025 19.9920697,24.3228049 C20.0096684,24.6058499 20.155835,24.8668966 20.3943945,25.0213737 C20.6109557,25.1631406 20.9824828,25.1631406 21.7211374,25.1631406" id="Fill-89" fill="#FFFFFE"></path>
        </g>
    </g>
</svg>