<?xml version="1.0" encoding="UTF-8"?>
<svg width="36px" height="36px" viewBox="0 0 36 36" version="1.1" xmlns="http://www.w3.org/2000/svg" xmlns:xlink="http://www.w3.org/1999/xlink">
    <title>Binance Coin</title>
    <g id="Binance-Coin" stroke="none" stroke-width="1" fill="none" fill-rule="evenodd">
        <g id="编组-11">
            <path d="M18,0 C27.9412835,0 36,8.05871649 36,18 C36,27.9412835 27.9412835,36 18,36 C8.05920534,36 0,27.9412835 0,18 C0,8.05871649 8.05920534,0 18,0" id="Fill-46" fill="#E5B137"></path>
            <polyline id="Fill-47" fill="#FFFFFE" points="13.342712 16.0665924 16.068059 13.3500448 18.0043997 11.4137041 22.6426224 16.0665924 25.3425491 13.3500448 18.0043997 6.00016295 10.6427854 13.3500448 13.342712 16.0665924"></polyline>
            <polyline id="Fill-48" fill="#FFFFFE" points="15.2971402 17.9956003 18.0083105 15.2844301 20.7194807 17.9956003 18.0083105 20.7067706 15.2971402 17.9956003"></polyline>
            <polyline id="Fill-49" fill="#FFFFFE" points="22.6426224 19.9392738 18.0029331 24.5789631 16.37408 22.95011 16.0739252 22.6499552 13.342712 19.9392738 10.6427854 22.6396893 18.0043997 29.9895712 25.3425491 22.6396893 22.6426224 19.9392738"></polyline>
            <polyline id="Fill-50" fill="#FFFFFE" points="6.00016295 18.0029331 8.71133321 15.2917629 11.4225035 18.0029331 8.71133321 20.7141034 6.00016295 18.0029331"></polyline>
            <polyline id="Fill-51" fill="#FFFFFE" points="24.5789631 18.0014666 27.2901333 15.2902963 30.0013036 18.0014666 27.2901333 20.7126368 24.5789631 18.0014666"></polyline>
        </g>
    </g>
</svg>