<?xml version="1.0" encoding="UTF-8"?>
<svg width="36px" height="36px" viewBox="0 0 36 36" version="1.1" xmlns="http://www.w3.org/2000/svg" xmlns:xlink="http://www.w3.org/1999/xlink">
    <title>Bitcoin</title>
    <g id="Bitcoin" stroke="none" stroke-width="1" fill="none" fill-rule="evenodd">
        <g id="编组-7">
            <path d="M35.4576268,22.3541725 C33.0534528,31.9972664 23.2861905,37.8654454 13.6421189,35.4612714 C4.00244699,33.0570974 -1.86573202,23.2898351 0.538930807,13.647719 C2.94163822,4.00364737 12.7084117,-1.86550934 22.3495501,0.538664631 C31.9931329,2.9428386 37.860823,12.7110786 35.4571379,22.3541725 L35.4576268,22.3541725" id="Fill-13" fill="#EB8C3B"></path>
            <path d="M22.0317964,15.4002533 C21.474994,17.6308848 18.0378758,16.4977259 16.9228045,16.220058 L17.9058858,12.276978 C19.021446,12.554646 22.6120636,13.0733179 22.0317964,15.4002533 Z M21.4217091,21.7631505 C20.8106442,24.2157208 16.6818004,22.8904431 15.3423461,22.5575349 L16.4271086,18.2101744 C17.7655853,18.5440603 22.0581944,19.205477 21.422198,21.7631505 L21.4217091,21.7631505 Z M25.9343016,15.4359395 C26.2921412,13.0405648 24.4687234,11.7529287 21.9750895,10.8940158 L22.7841395,7.64950533 L20.8081999,7.1572314 L20.0206594,10.3161928 C19.5024763,10.1871359 18.9691388,10.0649229 18.4392233,9.94417646 L19.2321412,6.76419442 L17.2586458,6.27192049 L16.4491069,9.51545329 C16.019406,9.4176829 15.5975268,9.32089021 15.1878688,9.219209 L15.1903131,9.20894311 L12.4664299,8.52895002 L11.9414029,10.6383463 L13.3756946,10.9947193 C14.1754564,11.1946598 14.3206454,11.7235976 14.295714,12.1435215 L12.079748,21.0313391 C11.9814888,21.2742985 11.7336408,21.6389821 11.1743942,21.500637 L9.73912482,21.1423085 L8.75848777,23.4032488 L11.3293603,24.0441337 C11.8074575,24.1639025 12.2757777,24.2895374 12.7367651,24.4073507 L11.9194046,27.6895028 L13.8919223,28.1817768 L14.70195,24.9353109 C15.240176,25.0814776 15.7632476,25.2164007 16.2750756,25.3435023 L15.4684699,28.5748138 L17.4434318,29.0670877 L18.2607923,25.7917795 C21.6284935,26.4292425 24.1612355,26.1721063 25.226444,23.1265586 C26.0853569,20.6739883 25.1839138,19.2597395 23.4123143,18.336787 C24.7023947,18.0376096 25.6747212,17.1889626 25.9338128,15.4359395 L25.9343016,15.4359395 L25.9343016,15.4359395 Z" id="Fill-14" fill="#FFFFFE"></path>
        </g>
    </g>
</svg>