<?xml version="1.0" encoding="UTF-8"?>
<svg width="36px" height="36px" viewBox="0 0 36 36" version="1.1" xmlns="http://www.w3.org/2000/svg" xmlns:xlink="http://www.w3.org/1999/xlink">
    <title>Caradano</title>
    <g id="Caradano" stroke="none" stroke-width="1" fill="none" fill-rule="evenodd">
        <g id="编组-3">
            <path d="M36,18 C36,27.9412835 27.9407947,36 18,36 C8.05871649,36 0,27.9412835 0,18 C0,8.05871649 8.05871649,0 18,0 C27.9407947,0 36,8.05871649 36,18" id="Fill-32" fill="#4BB9B3"></path>
            <path d="M17.1987724,29.944108 C17.3048532,29.4655224 17.924228,29.2328291 18.3329079,29.4870319 C18.602265,29.6028897 18.681459,29.9049999 18.750387,30.161158 C18.7137231,30.2951033 18.6804812,30.4285598 18.6477282,30.5625051 C18.480541,30.7604899 18.2659352,30.9584748 17.9877787,30.9516309 C17.4710627,31.0122484 17.0042096,30.4275821 17.1987724,29.944108 L17.1987724,29.944108 Z M10.670161,29.5730697 C10.7777084,29.24945 11.0377774,28.9277858 11.4185927,29.0123571 C11.9734391,29.0514652 12.138182,29.8883789 11.6527525,30.1460036 C11.2157193,30.4407811 10.7087803,30.0374786 10.670161,29.5730697 L10.670161,29.5730697 Z M24.2025475,29.927487 C23.9327014,29.5192961 24.2499661,29.0275115 24.6884658,28.9346297 C25.0404389,29.006002 25.4129437,29.2709595 25.3386383,29.6791505 C25.2873089,30.2320415 24.4792374,30.4011841 24.2025475,29.927487 L24.2025475,29.927487 Z M22.4974335,25.7130985 C23.1040982,25.3381494 23.9659433,25.8763749 23.9087477,26.5822764 C23.924391,27.3199533 22.95011,27.7926727 22.3854865,27.3082209 C21.8389506,26.9278944 21.9054344,26.0152087 22.4974335,25.7130985 L22.4974335,25.7130985 Z M12.694495,25.7033215 C13.2845387,25.3933896 14.0759892,25.9291709 14.0222156,26.5891203 C14.0398142,27.1312566 13.5108769,27.5927324 12.9765623,27.5130496 C12.533174,27.5032726 12.2447516,27.1063252 12.1024959,26.728443 C12.1098286,26.3173189 12.2789712,25.8587762 12.694495,25.7033215 L12.694495,25.7033215 Z M17.5341245,24.5745634 C18.2263382,24.2690313 19.1087151,24.8717851 19.043209,25.6343934 C19.0945384,26.4771734 18.003422,27.060862 17.3263627,26.5549007 C16.5745091,26.1203118 16.6996551,24.8414763 17.5341245,24.5745634 L17.5341245,24.5745634 Z M7.08541322,23.4296733 C7.61435051,23.0777002 8.37549225,23.6027267 8.25621249,24.2211238 C8.19315065,24.7681486 7.50435893,25.0805247 7.05070476,24.770104 C6.5638087,24.4885256 6.58140735,23.6863203 7.08541322,23.4296733 L7.08541322,23.4296733 Z M27.8327585,24.378534 C27.5590017,23.8691508 28.0556748,23.193558 28.6217648,23.2879064 C28.9033432,23.2830178 29.1003503,23.5049564 29.2807365,23.6912088 C29.3178892,23.993319 29.3799734,24.3536026 29.1291926,24.5862959 C28.7884631,25.0174629 28.0175443,24.8942723 27.8327585,24.378534 L27.8327585,24.378534 Z M24.2133022,20.748323 C24.9113821,20.4559898 25.7683387,21.0597214 25.7145651,21.81793 C25.7429184,22.6519106 24.684555,23.2272888 24.0016295,22.7403927 C23.2282665,22.3033595 23.3690557,21.0167024 24.2133022,20.748323 L24.2133022,20.748323 Z M11.2636267,20.7136145 C12.0467668,20.5796692 12.7805328,21.4532468 12.4632682,22.1967899 C12.2315526,22.9892181 11.078352,23.2043128 10.5684799,22.5570734 C9.97061459,21.9357432 10.416936,20.7991635 11.2636267,20.7136145 L11.2636267,20.7136145 Z M19.7774639,20.0067353 C20.9091551,19.6904484 22.1430162,20.6368648 22.1254176,21.8115749 C22.1850574,22.95011 21.0416339,23.9444339 19.9236305,23.7185845 C18.872111,23.5821949 18.0963037,22.4270389 18.3901035,21.406317 C18.5382255,20.7263247 19.1062709,20.1734336 19.7774639,20.0067353 L19.7774639,20.0067353 Z M15.3616686,20.0091795 C16.4767388,19.7192906 17.6749138,20.6490861 17.6822465,21.7969094 C17.7550854,22.9569539 16.5745091,23.9859863 15.4330409,23.7180957 C14.550664,23.5758399 13.8584503,22.726216 13.8872926,21.8345509 C13.8848483,20.981994 14.5281769,20.1895657 15.3616686,20.0091795 L15.3616686,20.0091795 Z M31.0699329,17.4515086 C31.3681323,17.2388583 31.8467179,17.3918688 31.96502,17.7404199 C32.1654491,18.1212352 31.7978328,18.6428397 31.3695989,18.5783113 C30.7678227,18.6330627 30.5732598,17.7164661 31.0699329,17.4515086 L31.0699329,17.4515086 Z M4.35273349,17.4622634 C4.77656772,17.2769887 5.3006165,17.644605 5.2038239,18.1148801 C5.18133674,18.6477282 4.39477472,18.852557 4.1058635,18.4072133 C3.85019418,18.0982591 4.00320469,17.621629 4.35273349,17.4622634 Z M26.9063849,18.1329676 C26.8858532,17.5492789 27.3126205,17.0325629 27.9109747,17.0002987 C28.3934711,17.0765596 28.8627685,17.4656853 28.8246381,17.9907118 C28.8686347,18.6843921 28.0331876,19.1556449 27.4421662,18.8300698 C27.1649874,18.6892806 27.0232204,18.4052579 26.9063849,18.1329676 L26.9063849,18.1329676 Z M7.81575731,17.1195785 C8.52019228,16.8531544 9.30088808,17.6304283 9.01539882,18.3285082 C8.8413677,18.9649928 7.9448141,19.2001304 7.48138291,18.7308329 C6.93973548,18.2903778 7.14016458,17.3107194 7.81575731,17.1195785 L7.81575731,17.1195785 Z M21.8946797,16.1775617 C22.6875968,15.9507346 23.6188588,16.2562668 24.0446484,16.9783004 C24.6082942,17.8039706 24.3394259,19.0358763 23.5005567,19.5682355 C22.6220907,20.1866326 21.2611282,19.8620353 20.7776541,18.895087 C20.1915211,17.8953858 20.781076,16.4821162 21.8946797,16.1775617 L21.8946797,16.1775617 Z M13.0601559,16.1814725 C13.8755601,15.9570897 14.8077999,16.341327 15.2076804,17.0907363 C15.6456913,17.8455229 15.4667717,18.8931316 14.7862904,19.4465115 C13.9136906,20.2580049 12.3043915,19.9324299 11.8399826,18.8246924 C11.3061568,17.8093479 11.9543739,16.4488743 13.0601559,16.1814725 L13.0601559,16.1814725 Z M24.0676245,13.1906792 C24.7647267,12.7849325 25.7326526,13.3754651 25.7018549,14.1766926 C25.7492735,15.0253388 24.6781999,15.6232041 23.9840309,15.1255534 C23.2629749,14.7110073 23.3191929,13.54363 24.0676245,13.1906792 L24.0676245,13.1906792 Z M10.29179,14.0412808 C10.3587627,13.4747019 10.8930773,13.1056191 11.4327693,13.0674887 C12.0140137,13.1373944 12.4784226,13.5890932 12.5419733,14.1771815 C12.5038429,14.7598925 12.0536107,15.3289156 11.4361913,15.3254936 C10.7571766,15.3841558 10.1617555,14.708563 10.29179,14.0412808 L10.29179,14.0412808 Z M14.955433,12.4471361 C15.8353657,12.0316124 17.0193639,12.3801635 17.4446647,13.2801391 C17.9447598,14.1561609 17.5580783,15.3758453 16.6639689,15.8285218 C15.7688819,16.3369273 14.5056897,15.9512235 14.0720784,15.0106733 C13.5866489,14.1009207 14.0178159,12.865593 14.955433,12.4466473 L14.955433,12.4471361 Z M19.6136987,12.352299 C20.4075935,12.0672986 21.350588,12.4085169 21.8027756,13.1163738 C22.3996632,13.9816409 22.0819098,15.2995845 21.1560251,15.7957687 C20.1964097,16.3833682 18.7948725,15.8852285 18.4404552,14.8136661 C18.0376416,13.8540507 18.6242633,12.6534315 19.6136987,12.352299 L19.6136987,12.352299 Z M28.0815839,11.2499389 C28.5626137,10.8759675 29.3565085,11.3046903 29.298824,11.9123326 C29.3315771,12.4657125 28.6447408,12.8836805 28.1671329,12.5986801 C27.6416176,12.362076 27.5878439,11.5530268 28.0815839,11.2499389 L28.0815839,11.2499389 Z M7.08785747,11.2509166 C7.65492518,10.9023655 8.41997773,11.5383613 8.20488308,12.1543141 C8.08706988,12.6871622 7.37090247,12.9042123 6.96124494,12.5639716 C6.52421173,12.2452405 6.59362864,11.4787214 7.08785747,11.2509166 L7.08785747,11.2509166 Z M16.864398,10.3568073 C16.858043,9.74378751 17.4168002,9.28622254 18,9.24467016 C18.3866815,9.32239754 18.8080715,9.48714049 18.974281,9.87724396 C19.2832351,10.4154694 19.0085006,11.1565683 18.4502322,11.4039271 C18.1945629,11.5466717 17.8924527,11.4933869 17.6142962,11.4762771 C17.1889954,11.2675375 16.8311561,10.8583689 16.864398,10.3568073 L16.864398,10.3568073 Z M22.0535564,9.04424106 C22.3302463,8.33051791 23.4526493,8.30851959 23.7679585,9.00366639 C24.0793569,9.54433611 23.6960973,10.2135738 23.1412509,10.3973819 C22.4060183,10.5347492 21.7074496,9.7398767 22.0535564,9.04424106 L22.0535564,9.04424106 Z M12.5776595,8.62725075 C13.1985009,8.23470302 14.0842997,8.81936938 13.9884848,9.5404253 C13.9562206,10.2683251 12.9892724,10.690204 12.4437142,10.1979305 C11.9162434,9.81173787 11.9964151,8.92447245 12.5776595,8.62725075 L12.5776595,8.62725075 Z M24.54621,6.98764292 C23.9659433,6.91773716 23.8740393,6.00505147 24.4327965,5.82173216 C24.8659189,5.61005948 25.2633552,6.00651802 25.3269058,6.41715325 C25.2359795,6.76765976 24.9421797,7.08883518 24.54621,6.98764292 L24.54621,6.98764292 Z M11.081774,5.82955379 C11.4533011,5.67654328 11.9230874,6.0167839 11.8854458,6.42155292 C11.9245539,6.86054154 11.387795,7.18416121 11.0089351,6.97542163 C10.5078624,6.78085875 10.565058,5.96692105 11.081774,5.82955379 L11.081774,5.82955379 Z M17.6558486,5.12071915 C18.2669129,4.801988 19.0133891,5.54162027 18.6883029,6.15219576 C18.4996062,6.64984655 17.7849054,6.7823253 17.4192445,6.40297656 C17.0325629,6.03878222 17.1586866,5.318704 17.6558486,5.12071915 L17.6558486,5.12071915 Z" id="Fill-33" fill="#FFFFFE"></path>
        </g>
    </g>
</svg>