<?xml version="1.0" encoding="UTF-8"?>
<svg width="36px" height="36px" viewBox="0 0 36 36" version="1.1" xmlns="http://www.w3.org/2000/svg" xmlns:xlink="http://www.w3.org/1999/xlink">
    <title>cosmos</title>
    <g id="cosmos" stroke="none" stroke-width="1" fill="none" fill-rule="evenodd">
        <g id="cosmos-atom-logo-1" fill-rule="nonzero">
            <circle id="椭圆形" fill="#2E3148" cx="18" cy="18" r="18"></circle>
            <circle id="椭圆形" fill="#1B1E36" cx="18" cy="18" r="10.444464"></circle>
            <path d="M18.037008,2.296368 C16.094016,2.296368 14.518512,9.343728 14.518512,18.037152 C14.518512,26.730576 16.094016,33.777936 18.037008,33.777936 C19.98,33.777936 21.555504,26.730576 21.555504,18.037152 C21.555504,9.343728 19.98,2.296368 18.037008,2.296368 Z M18.279936,32.8896 C18.057744,33.185952 17.835552,32.963616 17.835552,32.963616 C16.940736,31.926816 16.493328,30.000672 16.493328,30.000672 C14.928192,24.963696 15.30072,14.148864 15.30072,14.148864 C16.036272,5.563008 17.37432,3.534768 17.829648,3.08448 C17.9256357,2.98961032 18.0759237,2.97746093 18.185904,3.05568 C18.846576,3.523824 19.400688,5.481648 19.400688,5.481648 C21.03696,11.555712 20.888784,17.259408 20.888784,17.259408 C21.03696,22.222368 20.068848,27.777888 20.068848,27.777888 C19.323648,31.999968 18.279936,32.8896 18.279936,32.8896 Z" id="形状" fill="#6F7390"></path>
            <path d="M31.690368,10.203696 C30.722976,8.517744 23.826672,10.658448 16.282368,14.984496 C8.738064,19.310544 3.4164,24.184512 4.383072,25.869744 C5.349744,27.554976 12.246768,25.414992 19.791072,21.088944 C27.335376,16.762896 32.65704,11.888928 31.690368,10.203696 L31.690368,10.203696 Z M5.275584,25.63848 C4.905216,25.591824 4.98888,25.287408 4.98888,25.287408 C5.4432,23.995584 6.88896,22.648896 6.88896,22.648896 C10.480752,18.784512 20.047536,13.725936 20.047536,13.725936 C27.860112,10.091088 30.2868,10.244448 30.9024,10.413936 C31.0328682,10.4503524 31.1180454,10.575563 31.104,10.710288 C31.029984,11.516688 29.603952,12.971088 29.603952,12.971088 C25.152624,17.414784 20.1312,20.125152 20.1312,20.125152 C15.900048,22.724352 10.599408,24.648048 10.599408,24.648048 C6.566112,26.10144 5.275728,25.63848 5.275728,25.63848 L5.275728,25.63848 L5.275584,25.63848 Z" id="形状" fill="#6F7390"></path>
            <path d="M31.65624,25.925904 C32.63112,24.244416 27.322848,19.348128 19.80504,14.989536 C12.287232,10.630944 5.391792,8.463744 4.417776,10.148112 C3.44376,11.83248 8.751168,16.725888 16.273296,21.08448 C23.795424,25.443072 30.682224,27.610416 31.65624,25.925904 Z M5.06376,10.79784 C4.91976,10.456416 5.223744,10.374192 5.223744,10.374192 C6.569568,10.120032 8.46,10.6992 8.46,10.6992 C13.60296,11.870352 22.7736,17.6148 22.7736,17.6148 C29.834352,22.555584 30.917232,24.731856 31.07952,25.349616 C31.1135924,25.4804288 31.0485489,25.6167769 30.92544,25.672608 C30.189168,26.009712 28.217232,25.50744 28.217232,25.50744 C22.139424,23.877792 17.278704,20.891952 17.278704,20.891952 C12.911328,18.5364 8.592768,14.91192 8.592768,14.91192 C5.311296,12.148992 5.064768,10.801584 5.064768,10.801584 L5.06376,10.79784 Z" id="形状" fill="#6F7390"></path>
            <circle id="椭圆形" fill="#B7B9C8" cx="18" cy="18" r="1.85184"></circle>
            <ellipse id="椭圆形" fill="#B7B9C8" cx="25.592544" cy="10.888848" rx="1.074096" ry="1.111104"></ellipse>
            <ellipse id="椭圆形" fill="#B7B9C8" cx="7.962912" cy="14.666688" rx="1.074096" ry="1.111104"></ellipse>
            <ellipse id="椭圆形" fill="#B7B9C8" cx="15.8148" cy="28.296288" rx="1.074096" ry="1.111104"></ellipse>
        </g>
    </g>
</svg>