<?xml version="1.0" encoding="UTF-8"?>
<svg width="36px" height="36px" viewBox="0 0 36 36" version="1.1" xmlns="http://www.w3.org/2000/svg" xmlns:xlink="http://www.w3.org/1999/xlink">
    <title>Dogecoin</title>
    <g id="Dogecoin" stroke="none" stroke-width="1" fill="none" fill-rule="evenodd">
        <g id="编组-13">
            <path d="M18,0 C8.05871649,0 0,8.05871649 0,18 C0,27.9412835 8.05871649,36 18,36 C27.9412835,36 36,27.9412835 36,18 C36,8.05871649 27.9412835,0 18,0" id="Fill-102" fill="#B19B44"></path>
            <path d="M18.5582684,24.1253349 L15.8602971,24.1253349 L15.8602971,19.0554303 L19.9065207,19.0554303 L19.9065207,16.9323484 L15.8602971,16.9323484 L15.8602971,11.8619809 L18.4321447,11.8619809 C19.3942044,11.8619809 24.2333451,12.2491513 24.2411759,18.2263382 C24.2489883,24.2035252 19.2514598,24.1253349 18.5582684,24.1253349 Z M17.7829499,8.26598952 L12.1885337,8.26598952 L12.1885337,16.9323484 L9.89093181,16.9323484 L9.89093181,19.0554303 L12.1885337,19.0554303 L12.1885337,27.7217892 L18.7073681,27.7217892 C18.7073681,27.7217892 27.8733332,28.4897749 27.8733332,18.1564325 C27.8733332,7.99076614 19.1067597,8.26598952 17.7829499,8.26598952 L17.7829499,8.26598952 Z" id="Fill-103" fill="#FFFFFE"></path>
        </g>
    </g>
</svg>