<?xml version="1.0" encoding="UTF-8"?>
<svg width="36px" height="36px" viewBox="0 0 36 36" version="1.1" xmlns="http://www.w3.org/2000/svg" xmlns:xlink="http://www.w3.org/1999/xlink">
    <title>DOT</title>
    <g id="DOT" stroke="none" stroke-width="1" fill="none" fill-rule="evenodd">
        <g id="编组-2">
            <path d="M36,18 C36,27.9412835 27.9407947,36 18,36 C8.05871649,36 0,27.9412835 0,18 C0,8.05871649 8.05871649,0 18,0 C27.9407947,0 36,8.05871649 36,18" id="Fill-109" fill="#D91F77"></path>
            <path d="M18,3.63167758 C20.8622254,3.63167758 23.1823144,4.98090763 23.1823144,6.64544689 C23.1823144,8.30998615 20.8622254,9.65921621 18,9.65921621 C15.1382635,9.65921621 12.8181744,8.30998615 12.8181744,6.64544689 C12.8181744,4.98090763 15.1382635,3.63167758 18,3.63167758" id="Fill-110" fill="#FFFFFE"></path>
            <path d="M18,26.3407838 C20.8622254,26.3407838 23.1823144,27.6900139 23.1823144,29.3545531 C23.1823144,31.0190924 20.8622254,32.3683224 18,32.3683224 C15.1382635,32.3683224 12.8181744,31.0190924 12.8181744,29.3545531 C12.8181744,27.6900139 15.1382635,26.3407838 18,26.3407838" id="Fill-111" fill="#FFFFFE"></path>
            <path d="M5.55481926,10.8153499 C6.98617637,8.33687298 9.31555362,7.00279732 10.7576655,7.83580022 C12.2002662,8.66831428 12.2095543,11.3525977 10.7786861,13.8310747 C9.34732897,16.3095516 7.01795171,17.6436273 5.57583987,16.8111132 C4.13323918,15.9781103 4.12395101,13.2938269 5.55481926,10.8153499" id="Fill-112" fill="#FFFFFE"></path>
            <path d="M25.2227805,22.1703919 C26.6541376,19.6919149 28.9825371,18.3573504 30.4241601,19.1898645 C31.8652943,20.0218897 31.8740936,22.7061731 30.4427365,25.1841612 C29.0118682,27.6626382 26.6834687,28.9972027 25.2418457,28.1651775 C23.8002227,27.3326634 23.7919122,24.6488689 25.2227805,22.1703919" id="Fill-113" fill="#FFFFFE"></path>
            <path d="M5.57632873,19.1888868 C7.01892942,18.3563727 9.34830667,19.6904484 10.7791749,22.1689253 C12.2100432,24.6474023 12.200755,27.3316857 10.7586432,28.1641998 C9.31604248,28.9972027 6.98666522,27.663127 5.55579696,25.1846501 C4.12492871,22.7061731 4.13421689,20.0218897 5.57632873,19.1888868" id="Fill-114" fill="#FFFFFE"></path>
            <path d="M25.2433122,7.83628907 C26.6844464,7.00426387 29.0133348,8.33833953 30.444203,10.8168165 C31.8750713,13.2952934 31.8667608,15.9795769 30.4251378,16.8116021 C28.9835148,17.6441161 26.6551153,16.3095516 25.224247,13.8310747 C23.7933788,11.3525977 23.8016893,8.66880313 25.2433122,7.83628907" id="Fill-115" fill="#FFFFFE"></path>
        </g>
    </g>
</svg>