<?xml version="1.0" encoding="UTF-8"?>
<svg width="36px" height="36px" viewBox="0 0 36 36" version="1.1" xmlns="http://www.w3.org/2000/svg" xmlns:xlink="http://www.w3.org/1999/xlink">
    <title>Litecoin</title>
    <g id="Litecoin" stroke="none" stroke-width="1" fill="none" fill-rule="evenodd">
        <g id="编组-15">
            <path d="M18,0.00244425735 C27.9378615,0.008310475 35.9926672,8.06213845 36,18 C35.9941338,27.9383504 27.9388392,35.9936449 18,36 C8.0616496,35.9936449 0.00635506912,27.9383504 0,18 C0.0361750088,8.06556041 8.06556041,0 18,0 L18,0.00244425735" id="Fill-96" fill="#A7AAA8"></path>
            <polyline id="Fill-97" fill="#FFFFFE" points="14.8840607 8.02889655 12.0614323 18.5871106 9.82493686 19.4670433 9.01882078 22.472991 11.2914913 21.7035387 9.788273 27.9359061 26.0655604 27.9720811 27.0549958 23.9762092 17.1567312 23.9762092 18.4399663 19.1732435 21.1164281 18.036175 21.8858803 15.103555 19.2832351 15.9834877 21.3359224 8.13791043 14.8840607 8.02889655"></polyline>
        </g>
    </g>
</svg>