<?xml version="1.0" encoding="UTF-8"?>
<svg width="36px" height="36px" viewBox="0 0 36 36" version="1.1" xmlns="http://www.w3.org/2000/svg" xmlns:xlink="http://www.w3.org/1999/xlink">
    <title>polygon</title>
    <g id="polygon" stroke="none" stroke-width="1" fill="none" fill-rule="evenodd">
        <g id="polygon-matic-logo" transform="translate(0.000000, 4.323760)" fill="#8247E5" fill-rule="nonzero">
            <path d="M27.2584856,9.68146214 C26.6005222,9.30548303 25.7545692,9.30548303 25.002611,9.68146214 L19.7389034,12.7832898 L16.1671018,14.7571802 L10.997389,17.8590078 C10.3394256,18.2349869 9.49347258,18.2349869 8.74151436,17.8590078 L4.6997389,15.4151436 C4.04177546,15.0391645 3.57180157,14.2872063 3.57180157,13.4412533 L3.57180157,8.74151436 C3.57180157,7.98955614 3.94778068,7.23759791 4.6997389,6.76762402 L8.74151436,4.41775457 C9.39947781,4.04177546 10.2454308,4.04177546 10.997389,4.41775457 L15.0391645,6.8616188 C15.6971279,7.23759791 16.1671018,7.98955614 16.1671018,8.83550914 L16.1671018,11.9373368 L19.7389034,9.8694517 L19.7389034,6.67362924 C19.7389034,5.92167102 19.3629243,5.16971279 18.6109661,4.6997389 L11.0913838,0.281984334 C10.4334204,-0.0939947781 9.58746736,-0.0939947781 8.83550914,0.281984334 L1.12793734,4.79373368 C0.375979112,5.16971279 0,5.92167102 0,6.67362924 L0,15.5091384 C0,16.2610966 0.375979112,17.0130548 1.12793734,17.4830287 L8.74151436,21.9007833 C9.39947781,22.2767624 10.2454308,22.2767624 10.997389,21.9007833 L16.1671018,18.8929504 L19.7389034,16.8250653 L24.9086162,13.8172324 C25.5665796,13.4412533 26.4125326,13.4412533 27.1644909,13.8172324 L31.2062663,16.1671018 C31.8642298,16.5430809 32.3342037,17.2950392 32.3342037,18.1409922 L32.3342037,22.8407311 C32.3342037,23.5926893 31.9582245,24.3446475 31.2062663,24.8146214 L27.2584856,27.1644909 C26.6005222,27.54047 25.7545692,27.54047 25.002611,27.1644909 L20.9608355,24.8146214 C20.3028721,24.4386423 19.8328982,23.6866841 19.8328982,22.8407311 L19.8328982,19.8328982 L16.2610966,21.9007833 L16.2610966,25.002611 C16.2610966,25.7545692 16.6370757,26.5065274 17.3890339,26.9765013 L25.002611,31.3942559 C25.6605744,31.770235 26.5065274,31.770235 27.2584856,31.3942559 L34.8720627,26.9765013 C35.5300261,26.6005222 36,25.848564 36,25.002611 L36,16.073107 C36,15.3211488 35.6240209,14.5691906 34.8720627,14.0992167 L27.2584856,9.68146214 Z" id="路径"></path>
        </g>
    </g>
</svg>