<?xml version="1.0" encoding="UTF-8"?>
<svg width="36px" height="36px" viewBox="0 0 36 36" version="1.1" xmlns="http://www.w3.org/2000/svg" xmlns:xlink="http://www.w3.org/1999/xlink">
    <title>SHIBA INU</title>
    <g id="SHIBA-INU" stroke="none" stroke-width="1" fill="none" fill-rule="evenodd">
        <g id="编组-12">
            <path d="M36,18 C36,27.9412835 27.9412835,36 18,36 C8.05920534,36 0,27.9412835 0,18 C0,8.05871649 8.05920534,0 18,0 C27.9412835,0 36,8.05871649 36,18" id="Fill-68" fill="#DA2E2E"></path>
            <path d="M25.0511936,19.3863828 C25.0384835,19.4538443 24.8400098,19.6567176 24.6415361,19.8043508 C24.0583363,20.231607 23.0146384,20.6285544 21.9538307,20.8187176 C21.3491214,20.9287092 20.744901,20.945819 20.5630483,20.856848 C20.4447462,20.797697 20.4281253,20.7512561 20.4701665,20.5992233 C20.5591374,20.2819587 20.8465821,19.935363 21.2943701,19.6102767 C21.5226637,19.4455338 22.4480595,18.8833546 22.8792265,18.6467505 C23.5890389,18.2576247 24.1639282,18.0254203 24.5525651,17.9701801 C24.6752668,17.9535591 24.8233888,17.9491594 24.8698297,17.9701801 C24.9456017,18 25.030173,18.223894 25.0639038,18.4942288 C25.0810136,18.6379512 25.0727031,19.2719915 25.0511936,19.3863828" id="Fill-69" fill="#000105"></path>
            <path d="M15.0947557,20.7849868 C15.0693354,20.8358274 14.9427229,20.8905787 14.7990006,20.9115994 C14.6552782,20.9331088 14.2158008,20.9203987 13.9664865,20.8905787 C13.0704218,20.7722767 12.1196057,20.4975422 11.4264143,20.1597458 C11.0377774,19.9695826 10.7586432,19.7794194 10.5513701,19.5721463 L10.4330681,19.4494446 L10.4203579,19.2891013 C10.3993373,19.0099671 10.403737,18.5704897 10.4374677,18.4140572 C10.4584884,18.283045 10.5049293,18.1564325 10.5684799,18.0420412 C10.6022107,18 10.6022107,18 10.7542435,18 C10.9404959,18 11.0969284,18.0293311 11.3501534,18.1099916 C11.8702914,18.2703349 12.6436544,18.6594606 13.5856712,19.2255506 C14.3634339,19.6904484 14.6552782,19.918742 14.8791722,20.231607 C15.031205,20.425681 15.1328861,20.7004155 15.0947557,20.7849868" id="Fill-70" fill="#000105"></path>
            <path d="M21.0787866,26.6678254 C21.0787866,26.6805356 21.027946,26.8834089 20.9648842,27.1244127 C20.9013335,27.3649276 20.8504929,27.5594905 20.8504929,27.567801 C20.804052,27.5722006 20.7620108,27.5766003 20.7155699,27.5722006 L20.5801581,27.5722006 L20.3943945,28.0116781 C20.2927134,28.2526819 20.1998316,28.4765759 20.1871215,28.5103066 L20.1617012,28.5694576 L20.0732191,28.4257353 L19.9842481,28.282013 L19.9842481,27.1117026 L19.9505174,27.120013 C19.8786562,27.136634 19.3673176,27.2045843 19.1434236,27.225605 C18.2175389,27.3184867 17.2882323,27.2974661 16.3667472,27.1664539 C16.2186252,27.1454333 16.0920127,27.1283235 16.087613,27.1327232 C16.0837022,27.136634 16.087613,27.4074577 16.0964124,27.7413433 L16.1091225,28.341164 L16.0372613,28.4511556 C15.9991309,28.5103066 15.9610005,28.5611472 15.9610005,28.5655468 C15.9482904,28.5777681 15.9062492,28.5103066 15.8089677,28.3157437 C15.7033758,28.1128704 15.627115,27.8977757 15.5723636,27.6733929 L15.5425437,27.55118 L15.4115315,27.5594905 L15.2805193,27.5722006 L15.2467885,27.4157682 C15.2296787,27.3311969 15.2086581,27.2001847 15.2003476,27.1283235 L15.1876375,26.9934005 L15.0776459,26.8961191 C15.0145841,26.8408788 14.9510334,26.7861275 14.9383232,26.777817 L14.9085033,26.7059558 L14.9085033,26.6551153 L15.4369517,26.659515 L15.9654002,26.6634258 L15.9820211,26.718666 L15.9991309,26.7734173 L16.1809837,26.7817278 C16.2821759,26.7861275 16.6033513,26.794438 16.890796,26.8032373 L17.4192445,26.8154586 L17.5541675,26.6042747 L17.6934901,26.3930909 L17.8714321,26.3930909 L17.8626327,25.514136 L17.6304283,25.4124548 C16.8824855,25.082969 16.4430081,24.7070422 16.2777763,24.2504549 C16.2440455,24.1575731 16.2440455,24.1238424 16.235735,23.7009859 C16.2313354,23.282529 16.2313354,23.2443986 16.2611553,23.1515168 C16.3203063,22.940333 16.4850493,22.77559 16.6962331,22.7203498 C16.7680943,22.6993292 16.9582575,22.6993292 17.9555145,22.6993292 L19.1307135,22.7037289 L19.2617256,22.7672795 C19.4181581,22.8430515 19.4900193,22.8982917 19.5785014,23.0165938 C19.6801825,23.1515168 19.7095136,23.2571087 19.7095136,23.5152223 C19.7095136,23.8828386 19.6840933,24.1996144 19.6459629,24.3267157 C19.5912115,24.4997692 19.5066402,24.6645121 19.4010483,24.8126341 C19.1898645,25.082969 18.8051384,25.3533038 18.4546319,25.4760055 L18.3529508,25.514136 L18.3573504,25.9580131 L18.3612612,26.4014014 L18.4546319,26.4102007 L18.5475136,26.4185112 L18.6741262,26.6086744 L18.7968279,26.7988376 L19.3629179,26.7988376 C19.6757828,26.7988376 19.9505174,26.8032373 19.9759376,26.8071481 C20.0179789,26.8154586 20.0267782,26.8115478 20.0688194,26.7396866 L20.11966,26.6634258 L20.6055783,26.6634258 C20.968795,26.6468048 21.0787866,26.6551153 21.0787866,26.6678254" id="Fill-71" fill="#000105"></path>
            <path d="M18.8476685,27.8806659 C18.767008,27.9271068 18.7122566,27.9481274 18.6995465,27.939817 C18.6868363,27.9354173 18.6276853,27.8850656 18.5641346,27.8386247 L18.4502322,27.7452541 L18.3319301,27.8723554 C18.0743054,28.1510008 18.0655061,28.1637109 17.9897341,28.1681106 C17.8714321,28.1808207 17.8460118,28.1598001 17.7022895,27.9442166 C17.6260286,27.834225 17.5668776,27.7413433 17.5668776,27.7413433 C17.5668776,27.7413433 17.5121262,27.7325439 17.4485755,27.7286331 L17.3302735,27.715923 L17.2755221,27.8298254 L17.2202819,27.9442166 L17.1230005,27.9143967 C17.0472285,27.8889764 16.9709677,27.8596453 16.8991065,27.8259146 L16.772494,27.7623639 L16.772494,27.5213601 L17.8963635,27.5257598 L19.0207219,27.5296706 L19.0251215,27.6440618 C19.0290323,27.7794737 19.033432,27.775074 18.8476685,27.8806659" id="Fill-72" fill="#000105"></path>
            <path d="M20.9604845,27.120013 C20.8969338,27.3610168 20.8465821,27.5550908 20.8465821,27.5638902 C20.8001412,27.567801 20.7576111,27.5722006 20.7111703,27.567801 L20.5757584,27.567801 L20.3943945,28.0116781 C20.2927134,28.2526819 20.1998316,28.4765759 20.1871215,28.5103066 L20.1617012,28.5694576 L20.0732191,28.4257353 L19.9842481,28.282013 L19.9842481,27.1117026 L19.9505174,27.120013 C19.8786562,27.136634 19.3673176,27.2045843 19.1434236,27.225605 C18.2175389,27.3184867 17.2882323,27.2974661 16.3667472,27.1664539 C16.2186252,27.1454333 16.0920127,27.1283235 16.087613,27.1327232 C16.0837022,27.136634 16.087613,27.4074577 16.0964124,27.7413433 L16.1091225,28.341164 L16.0372613,28.4511556 C15.9991309,28.5103066 15.9610005,28.5611472 15.9610005,28.5655468 C15.9482904,28.5777681 15.9062492,28.5103066 15.8089677,28.3157437 C15.7033758,28.1128704 15.627115,27.8977757 15.5723636,27.6733929 L15.5425437,27.55118 L15.4115315,27.5594905 L15.2805193,27.5722006 L15.2467885,27.4157682 C15.2296787,27.3311969 15.2086581,27.2001847 15.2003476,27.1283235 L15.1876375,26.9934005 L15.0776459,26.8961191 C15.0145841,26.8408788 14.9510334,26.7861275 14.9383232,26.777817 L14.9085033,26.7059558 L14.9085033,26.6551153 L15.4369517,26.659515 L15.9654002,26.6634258 L15.9820211,26.718666 L15.9991309,26.7734173 L16.1809837,26.7817278 C16.2821759,26.7861275 16.6033513,26.794438 16.890796,26.8032373 L17.4192445,26.8154586 L17.5541675,26.6042747 L17.6934901,26.3930909 L17.8714321,26.3930909 L17.8626327,25.514136 L17.6304283,25.4124548 C16.8824855,25.082969 16.4430081,24.7070422 16.2777763,24.2504549 C16.2440455,24.1575731 16.2440455,24.1238424 16.235735,23.7009859 C16.2313354,23.282529 16.2313354,23.2443986 16.2611553,23.1515168 C16.3203063,22.940333 16.4850493,22.77559 16.6962331,22.7203498 C16.7680943,22.6993292 16.9582575,22.6993292 17.9555145,22.6993292 L19.1307135,22.7037289 L19.2617256,22.7672795 C19.4181581,22.8430515 19.4900193,22.8982917 19.5785014,23.0165938 C19.6801825,23.1515168 19.7095136,23.2571087 19.7095136,23.5152223 C19.7095136,23.8828386 19.6840933,24.1996144 19.6459629,24.3267157 C19.5912115,24.4997692 19.5066402,24.6645121 19.4010483,24.8126341 C19.1898645,25.082969 18.8051384,25.3533038 18.4546319,25.4760055 L18.3529508,25.514136 L18.3573504,25.9580131 L18.3612612,26.4014014 L18.4546319,26.4102007 L18.5475136,26.4185112 L18.6741262,26.6086744 L18.7968279,26.7988376 L19.3629179,26.7988376 C19.6757828,26.7988376 19.9505174,26.8032373 19.9759376,26.8071481 C20.0179789,26.8154586 20.0267782,26.8115478 20.0688194,26.7396866 L20.11966,26.6634258 L20.6055783,26.6634258 C20.9815051,26.6634258 21.0914967,26.6678254 21.0914967,26.6805356 C21.0787866,26.6761359 21.0240352,26.8834089 20.9604845,27.120013 Z M18.8476685,27.8806659 C18.767008,27.9271068 18.7122566,27.9481274 18.6995465,27.939817 C18.6868363,27.9354173 18.6276853,27.8850656 18.5641346,27.8386247 L18.4502322,27.7452541 L18.3319301,27.8723554 C18.0743054,28.1510008 18.0655061,28.1637109 17.9897341,28.1681106 C17.8714321,28.1808207 17.8460118,28.1598001 17.7022895,27.9442166 C17.6260286,27.834225 17.5668776,27.7413433 17.5668776,27.7413433 C17.5668776,27.7413433 17.5121262,27.7325439 17.4485755,27.7286331 L17.3302735,27.715923 L17.2755221,27.8298254 L17.2202819,27.9442166 L17.1230005,27.9143967 C17.0472285,27.8889764 16.9709677,27.8596453 16.8991065,27.8259146 L16.772494,27.7623639 L16.772494,27.5213601 L17.8963635,27.5257598 L19.0207219,27.5296706 L19.0251215,27.6440618 C19.0290323,27.7794737 19.033432,27.775074 18.8476685,27.8806659 Z M29.4127264,22.7247495 C29.4083268,22.7081285 29.4083268,22.6783086 29.404416,22.6318677 C28.3900492,22.5218761 25.4950707,22.4544146 22.8073654,24.6728226 C22.8073654,24.6728226 21.9411206,20.7004155 17.8836533,20.7004155 C13.826675,20.7004155 12.322479,24.6728226 12.322479,24.6728226 C10.0488308,22.226121 7.00573043,22.403574 5.90728117,22.5644062 L5.90288151,22.6445778 C5.86915076,23.2571087 5.88577171,23.548953 5.98745281,23.9336792 C6.30422857,25.1377203 7.28046495,26.4649521 8.81057006,27.7667635 C11.3164227,29.8966894 14.7144293,31.4346161 17.2882323,31.6125581 C19.971538,31.7939219 23.9317237,30.2261753 26.5685886,27.9354173 C26.9826458,27.567801 27.3717715,27.1791641 27.7349882,26.7651069 C27.9970126,26.4605524 28.3856495,25.9365036 28.3563184,25.9365036 L28.3729394,25.9198827 L28.3900492,25.8900627 L28.407159,25.8690421 L28.4237799,25.8480215 L28.4408897,25.8270009 L28.4535998,25.8015806 L28.4619103,25.7844708 L28.4790201,25.7634502 L28.4956411,25.7424296 L28.5127509,25.7253198 L28.5675022,25.6280383 C28.6310529,25.5307569 28.884278,25.0785693 28.9184976,25.0027973 C29.1590125,24.4577279 29.3115342,23.9713207 29.3833953,23.4854024 C29.4083268,23.2531979 29.4298362,22.8264306 29.4127264,22.7247495 L29.4127264,22.7247495 Z" id="Fill-73" fill="#FFFFFE"></path>
            <path d="M24.3496918,11.9607289 L24.3413813,11.9568181 C23.6315689,11.3902393 23.0987208,11.1243041 23.0987208,11.1243041 C25.892507,7.91206105 27.6210858,7.73460797 27.6210858,7.73460797 C27.811249,7.99272154 27.9334619,8.32220744 28.0014122,8.70253388 C28.3944488,10.9590723 26.8687434,14.9148584 26.8687434,14.9148584 C26.2303034,13.7782787 25.372369,12.7722224 24.3496918,11.9607289 Z M25.0511936,19.3863828 C25.0384835,19.4538443 24.8400098,19.6567176 24.6415361,19.8043508 C24.0583363,20.231607 23.0146384,20.6285544 21.9538307,20.8187176 C21.3491214,20.9287092 20.744901,20.945819 20.5630483,20.856848 C20.4447462,20.797697 20.4281253,20.7512561 20.4701665,20.5992233 C20.5591374,20.2819587 20.8465821,19.935363 21.2943701,19.6102767 C21.5226637,19.4455338 22.4480595,18.8833546 22.8792265,18.6467505 C23.5890389,18.2576247 24.1639282,18.0254203 24.5525651,17.9701801 C24.6752668,17.9535591 24.8233888,17.9491594 24.8698297,17.9701801 C24.9456017,18 25.030173,18.223894 25.0639038,18.4942288 C25.0810136,18.6379512 25.0727031,19.2719915 25.0511936,19.3863828 Z M15.0947557,20.7849868 C15.0693354,20.8358274 14.9427229,20.8905787 14.7990006,20.9115994 C14.6552782,20.9331088 14.2158008,20.9203987 13.9664865,20.8905787 C13.0704218,20.7722767 12.1196057,20.4975422 11.4264143,20.1597458 C11.0377774,19.9695826 10.7586432,19.7794194 10.5513701,19.5721463 L10.4330681,19.4494446 L10.4203579,19.2891013 C10.3993373,19.0099671 10.403737,18.5704897 10.4374677,18.4140572 C10.4584884,18.283045 10.5049293,18.1564325 10.5684799,18.0420412 C10.6022107,18 10.6022107,18 10.7542435,18 C10.9404959,18 11.0969284,18.0293311 11.3501534,18.1099916 C11.8702914,18.2703349 12.6436544,18.6594606 13.5856712,19.2255506 C14.3634339,19.6904484 14.6552782,19.918742 14.8791722,20.231607 C15.031205,20.425681 15.1328861,20.7004155 15.0947557,20.7849868 Z M8.38771353,14.9148584 C8.38771353,14.9148584 6.80725673,10.9634719 7.21300345,8.70693354 C7.28046495,8.3266071 7.40707748,7.99272154 7.60604003,7.73900763 C7.60604003,7.73900763 9.39768067,7.91646072 12.2882594,11.1282149 C12.2882594,11.1282149 11.7392792,11.3946389 11.0035578,11.9607289 L10.9952473,11.9651286 C10.196464,12.5776595 9.1737867,13.5499851 8.38771353,14.9148584 Z M29.3789957,22.2935825 C29.3706852,22.1034192 29.3535754,21.837484 29.3408653,21.7064719 C29.1590125,19.7877298 28.6691833,18.2199832 27.7393878,16.5588659 C27.7012574,16.4953152 27.6675267,16.4322533 27.6460172,16.3814128 L27.6293963,16.347682 C27.7604085,15.9546454 28.2971674,14.310638 28.7239347,12.4300263 C29.3027349,9.87724396 29.6703512,6.89378344 28.5464816,5.99771869 C28.5464816,5.99771869 26.6023193,5.85399636 23.9991852,8.40677874 C23.2932837,9.11219141 22.6465332,9.87724396 22.0721328,10.6931371 L21.89028,10.633986 C20.8421825,10.2913012 19.7559545,10.0801173 18.661416,10.0082562 C18.3319301,9.98283588 17.1019798,9.98283588 16.7006328,10.0082562 C15.4877923,10.0884278 14.5579968,10.2702805 13.5015888,10.6378969 L13.3832867,10.6804269 C12.7873768,9.86893349 12.1235165,9.1082806 11.3926835,8.41068955 C8.68346867,5.84568589 6.66793406,5.99331903 6.66793406,5.99331903 C5.47611417,6.91920372 5.88186089,10.0380761 6.49879145,12.6749409 C6.90453817,14.4206295 7.40316667,15.9546454 7.58893023,16.5080253 L7.54248934,16.6009071 C6.55794248,18.5959099 6.02558323,20.5185628 5.89848184,22.5644062 C7.00181961,22.403574 10.0400315,22.2217213 12.3180794,24.6728226 C12.3180794,24.6728226 13.8227642,20.7004155 17.8797425,20.7004155 C21.9367209,20.7004155 22.8029657,24.6728226 22.8029657,24.6728226 C25.4911599,22.4544146 28.3856495,22.5262758 29.4000163,22.6318677 C29.3956166,22.5472964 29.3873062,22.4206838 29.3789957,22.2935825 L29.3789957,22.2935825 Z" id="Fill-74" fill="#ED9A3B"></path>
            <path d="M28.005323,8.70253388 C27.6758372,8.6600038 26.116401,8.65169333 24.3496918,11.9607289 L24.3413813,11.9568181 C23.6315689,11.3902393 23.0987208,11.1243041 23.0987208,11.1243041 C25.892507,7.91206105 27.6210858,7.73460797 27.6210858,7.73460797 C27.8151598,7.99272154 27.9378615,8.32220744 28.005323,8.70253388" id="Fill-75" fill="#EB8B38"></path>
            <path d="M26.8726542,14.9148584 C26.2303034,13.773879 25.3767687,12.7722224 24.3496918,11.9607289 C26.116401,8.65169333 27.6714375,8.6600038 28.005323,8.70253388 C28.3983596,10.9634719 26.8726542,14.9148584 26.8726542,14.9148584" id="Fill-76" fill="#E87D34"></path>
            <polyline id="Fill-77" fill="#E87D34" points="28.0688737 8.71524402 28.005323 8.70253388 28.0688737 8.71524402"></polyline>
            <path d="M12.2882594,11.1243041 C12.2882594,11.1243041 11.7392792,11.3902393 11.0035578,11.9568181 L10.9952473,11.9607289 C9.16547622,8.64778252 7.55519948,8.6600038 7.20860379,8.70253388 C7.27606529,8.32220744 7.40316667,7.98832188 7.60164037,7.73460797 C7.60604003,7.73460797 9.39768067,7.91206105 12.2882594,11.1243041" id="Fill-78" fill="#EB8B38"></path>
            <path d="M10.9996469,11.9607289 C10.196464,12.5776595 9.1737867,13.5455854 8.38771353,14.9148584 C8.38771353,14.9148584 6.80725673,10.9634719 7.21300345,8.70253388 C7.55519948,8.6600038 9.16938703,8.65169333 10.9996469,11.9607289" id="Fill-79" fill="#E87D34"></path>
            <polyline id="Fill-80" fill="#E87D34" points="7.21300345 8.70253388 7.14505309 8.71524402 7.21300345 8.70253388"></polyline>
            <path d="M22.5961815,17.1083349 C22.5961815,17.1083349 21.2435295,17.1929062 21.4126721,16.1364982 C21.5818147,15.0796013 22.6382228,14.9529888 22.9339779,14.99503 C23.229733,15.0375601 24.4132424,15.4599278 24.2020586,16.347682 C23.9908748,17.2349474 23.6946308,17.0658048 23.525977,17.1083349 C23.3568344,17.1503761 22.5961815,17.1083349 22.5961815,17.1083349" id="Fill-81" fill="#FFFFFE"></path>
            <path d="M12.622145,17.1083349 C12.622145,17.1083349 11.2699818,17.1929062 11.4391244,16.1364982 C11.608267,15.0796013 12.664675,14.9529888 12.9604302,14.99503 C13.2561853,15.0375601 14.4396947,15.4599278 14.2285109,16.347682 C14.0168382,17.2349474 13.7210831,17.0658048 13.5519405,17.1083349 C13.3832867,17.1503761 12.622145,17.1083349 12.622145,17.1083349" id="Fill-82" fill="#FFFFFE"></path>
        </g>
    </g>
</svg>