<?xml version="1.0" encoding="UTF-8"?>
<svg width="36px" height="36px" viewBox="0 0 36 36" version="1.1" xmlns="http://www.w3.org/2000/svg" xmlns:xlink="http://www.w3.org/1999/xlink">
    <title>SOL</title>
    <defs>
        <path d="M36,18 C36,27.9407947 27.9412835,36 18,36 C8.05920534,36 1.38939945e-14,27.9407947 1.38939945e-14,18 C1.38939945e-14,8.05871649 8.05920534,2.77879889e-14 18,2.77879889e-14 C27.9412835,2.77879889e-14 36,8.05871649 36,18" id="path-1"></path>
        <linearGradient x1="93.8255343%" y1="5.30906276%" x2="12.5422992%" y2="88.1965454%" id="linearGradient-3">
            <stop stop-color="#5EB887" offset="0%"></stop>
            <stop stop-color="#7C4F8F" offset="100%"></stop>
        </linearGradient>
    </defs>
    <g id="SOL" stroke="none" stroke-width="1" fill="none" fill-rule="evenodd">
        <g id="编组-4">
            <g id="编组">
                <mask id="mask-2" fill="white">
                    <use xlink:href="#path-1"></use>
                </mask>
                <g id="Clip-38"></g>
                <path d="M36,18 C36,27.9407947 27.9412835,36 18,36 C8.05920534,36 1.38939945e-14,27.9407947 1.38939945e-14,18 C1.38939945e-14,8.05871649 8.05920534,2.77879889e-14 18,2.77879889e-14 C27.9412835,2.77879889e-14 36,8.05871649 36,18" id="Fill-37" fill="url(#linearGradient-3)" mask="url(#mask-2)"></path>
            </g>
            <path d="M9.4749192,23.210179 C9.62744086,23.0576573 9.83715814,22.9691752 10.0590967,22.9691752 L30.2149317,22.9691752 C30.5830369,22.9691752 30.7673339,23.4135412 30.506776,23.674099 L26.5255696,27.6553054 C26.373048,27.8078271 26.1633307,27.896798 25.9413921,27.896798 L5.78555715,27.896798 C5.41696315,27.896798 5.23315499,27.452432 5.49322398,27.1918742 L9.4749192,23.210179" id="Fill-39" fill="#FFFFFE"></path>
            <path d="M9.4749192,8.34420575 C9.63379593,8.19217294 9.84351321,8.10320198 10.0590967,8.10320198 L30.2149317,8.10320198 C30.5830369,8.10320198 30.7673339,8.54756796 30.506776,8.8081258 L26.5255696,12.7893322 C26.373048,12.9418538 26.1633307,13.0308248 25.9413921,13.0308248 L5.78555715,13.0308248 C5.41696315,13.0308248 5.23315499,12.5864588 5.49322398,12.325901 L9.4749192,8.34420575" id="Fill-40" fill="#FFFFFE"></path>
            <path d="M26.5255696,15.7297738 C26.373048,15.5772521 26.1633307,15.4882811 25.9413921,15.4882811 L5.78555715,15.4882811 C5.41696315,15.4882811 5.23315499,15.933136 5.49322398,16.193205 L9.4749192,20.1749002 C9.62744086,20.3274219 9.83715814,20.4163928 10.0590967,20.4163928 L30.2149317,20.4163928 C30.5830369,20.4163928 30.7673339,19.971538 30.506776,19.711469 L26.5255696,15.7297738" id="Fill-41" fill="#FFFFFE"></path>
        </g>
    </g>
</svg>