<?xml version="1.0" encoding="UTF-8"?>
<svg width="36px" height="36px" viewBox="0 0 36 36" version="1.1" xmlns="http://www.w3.org/2000/svg" xmlns:xlink="http://www.w3.org/1999/xlink">
    <title>Terra  Classic</title>
    <g id="Terra--Classic" stroke="none" stroke-width="1" fill="none" fill-rule="evenodd">
        <g id="编组-14">
            <path d="M18,0 C27.9407947,0 36,8.05871649 36,18 C36,27.9412835 27.9407947,36 18,36 C8.05871649,36 0,27.9412835 0,18 C0,8.05871649 8.05871649,0 18,0" id="Fill-17" fill="#18223C"></path>
            <path d="M14.4988458,8.04405095 C16.6067733,7.25602238 18.9791695,7.25406697 21.1262052,7.90179517 C23.9219467,8.76950653 26.2816328,10.8793895 27.5145162,13.527009 C27.8547568,14.2813069 28.1808207,15.0678689 28.2130849,15.906738 C26.6414274,14.9960077 24.9192037,14.4054751 23.1925803,13.8672497 C20.4315472,12.8719481 17.5409685,12.1807121 14.9270797,10.8124168 C14.3189484,10.4492002 13.5431411,10.0762065 13.3774205,9.31848673 C13.3109367,8.66342576 14.0036392,8.29776486 14.4988458,8.04405095" id="Fill-18" fill="#F9D252"></path>
            <path d="M8.13595503,14.4162299 C8.74604166,12.7600011 9.74672062,11.2230521 11.1057277,10.0835393 C11.4513457,12.9257217 12.6612531,15.6725781 14.659189,17.7389533 C17.0550501,20.228185 20.4677222,21.7563347 23.9400342,21.6991391 C25.3185954,21.742158 26.6668477,21.4234268 28.0111893,21.166291 C26.6883572,25.9467695 21.4483583,29.1203933 16.5940632,28.3572961 C13.6633986,27.9828359 10.9580946,26.2474132 9.32581951,23.7977784 C7.48431602,21.090519 7.01990712,17.4959941 8.13595503,14.4162299" id="Fill-19" fill="#F9D252"></path>
            <path d="M23.1925803,13.8672497 C24.9192037,14.4054751 26.6414274,14.9960077 28.2130849,15.906738 L28.3191657,15.9624671 C28.4648434,17.0584721 28.5714131,18.1764754 28.3768502,19.2744358 C27.5863773,18.9395725 26.9459819,18.3509954 26.2762554,17.8308574 C24.9871541,16.7578284 23.6716548,15.5303224 23.1925803,13.8672497" id="Fill-20" fill="#E46E33"></path>
        </g>
    </g>
</svg>