<?xml version="1.0" encoding="UTF-8"?>
<svg width="36px" height="36px" viewBox="0 0 36 36" version="1.1" xmlns="http://www.w3.org/2000/svg" xmlns:xlink="http://www.w3.org/1999/xlink">
    <title>Tether</title>
    <g id="Tether" stroke="none" stroke-width="1" fill="none" fill-rule="evenodd">
        <g id="编组-9">
            <path d="M18,0 C27.9403058,0 35.9995111,8.05920534 35.9995111,18 C35.9995111,27.9407947 27.9403058,36 18,36 C8.0596942,36 0,27.9427501 0,18 C0,8.05724994 8.05822764,0 18,0" id="Fill-55" fill="#4FA98C"></path>
            <path d="M20.2228076,19.6640504 L20.2228076,19.6616061 C20.0976617,19.6694278 19.4557997,19.708047 18.0268868,19.708047 C16.8839521,19.708047 16.0802803,19.6757828 15.7967464,19.6611173 L15.7967464,19.6645393 C11.4000163,19.4699764 8.11786752,18.7039461 8.11786752,17.7878385 C8.11786752,16.8717308 11.4005051,16.1071671 15.7967464,15.9121154 L15.7967464,18.901931 C16.0851688,18.921485 16.9083947,18.9698813 18.0454632,18.9698813 C19.4108253,18.9698813 20.0976617,18.9131745 20.2232965,18.901931 L20.2232965,15.9121154 C24.6117161,16.107656 27.8865321,16.8736862 27.8865321,17.7868608 C27.8865321,18.6995465 24.6102496,19.4665544 20.2232965,19.662095 M20.2213411,15.6016947 L20.2213411,12.9237663 L26.3446946,12.9237663 L26.3446946,8.84381196 L9.67094864,8.84381196 L9.67094864,12.9237663 L15.794791,12.9237663 L15.794791,15.5992504 C10.8177942,15.8280329 7.07563619,16.8135575 7.07563619,17.9946226 C7.07563619,19.1751989 10.8197496,20.1612124 15.794791,20.3909725 L15.794791,28.9678716 L20.2228076,28.9678716 L20.2228076,20.3904837 C25.1905163,20.1612124 28.9253415,19.1761766 28.9253415,17.9960892 C28.9253415,16.8164906 25.1905163,15.8314549 20.2228076,15.6021835" id="Fill-56" fill="#FFFFFE"></path>
        </g>
    </g>
</svg>