<?xml version="1.0" encoding="UTF-8"?>
<svg width="36px" height="36px" viewBox="0 0 36 36" version="1.1" xmlns="http://www.w3.org/2000/svg" xmlns:xlink="http://www.w3.org/1999/xlink">
    <title>uniswap</title>
    <g id="uniswap" stroke="none" stroke-width="1" fill="none" fill-rule="evenodd">
        <g id="uniswap-uni-logo" transform="translate(2.000000, 0.000000)" fill="#FF007A">
            <path d="M12.2545649,8.18772563 C11.8646732,8.13202682 11.8461069,8.11346055 12.0317696,8.09489428 C12.3845288,8.03919546 13.2014447,8.11346055 13.7769991,8.24342445 C15.1137707,8.55905106 16.3205783,9.37596699 17.601651,10.8055699 L17.9358439,11.1954616 L18.4185669,11.1211965 C20.4794231,10.7870036 22.595978,11.0469314 24.3597737,11.8638473 C24.8424968,12.0866426 25.6037139,12.5322331 25.6965453,12.6436307 C25.7336778,12.6807633 25.7893766,12.9221248 25.8265092,13.1634863 C25.9564731,14.0361011 25.9007743,14.6859206 25.6222802,15.1872099 C25.47375,15.465704 25.47375,15.5399691 25.5665814,15.7813306 C25.6408465,15.9669933 25.8636417,16.0969572 26.0678707,16.0969572 C26.5134612,16.0969572 26.977618,15.3914389 27.2004133,14.4074265 L27.2932446,14.0175348 L27.4603411,14.2031975 C28.4072209,15.261475 29.1498717,16.7282104 29.2612694,17.7679216 L29.2984019,18.0464157 L29.1313055,17.8050542 C28.8528114,17.3780299 28.5928836,17.0995358 28.2401244,16.8581743 C27.6088712,16.4311501 26.9404855,16.3011862 25.1766897,16.2083548 C23.5799904,16.1155235 22.6702431,15.9855596 21.779062,15.6884992 C20.2566278,15.1872099 19.4768444,14.5373904 17.6759161,12.1423414 C16.8775664,11.084064 16.3762771,10.5085095 15.8749878,10.0257865 C14.7795778,8.96750903 13.6841678,8.41052089 12.2545649,8.18772563 Z" id="路径" fill-rule="nonzero"></path>
            <path d="M26.086437,10.5456421 C26.1235695,9.84012378 26.2164009,9.37596699 26.4206299,8.94894275 C26.4948949,8.78184631 26.56916,8.63331614 26.5877263,8.63331614 C26.6062926,8.63331614 26.56916,8.76328004 26.5134612,8.91181021 C26.364931,9.32026818 26.3463648,9.89582259 26.4391961,10.5456421 C26.56916,11.3811243 26.6248588,11.4925219 27.5160399,12.4022692 C27.9244978,12.8292935 28.4072209,13.3677153 28.5928836,13.5905106 L28.9085102,13.9989685 L28.5928836,13.7019082 C28.2029919,13.3305828 27.3118109,12.6250645 27.1075819,12.5322331 C26.977618,12.457968 26.9590517,12.457968 26.8662204,12.5507994 C26.7919553,12.6250645 26.773389,12.7364621 26.773389,13.274884 C26.7548227,14.1103662 26.6434251,14.6302218 26.364931,15.1686436 C26.2164009,15.4471377 26.1978346,15.3914389 26.3277985,15.0758123 C26.4206299,14.8344507 26.4391961,14.7230531 26.4391961,13.9247035 C26.4391961,12.3094379 26.2535334,11.9195462 25.1209909,11.2697267 C24.8424968,11.1026302 24.3597737,10.8612687 24.0812797,10.7313048 C23.7842193,10.6013409 23.5614241,10.4899433 23.5799904,10.4899433 C23.6171229,10.4528107 24.7125329,10.7684373 25.1395571,10.9541001 C25.7893766,11.2140278 25.9007743,11.2325941 25.9750393,11.2140278 C26.0307382,11.158329 26.0678707,11.0097989 26.086437,10.5456421 Z" id="路径" fill-rule="nonzero"></path>
            <path d="M13.015782,13.3120165 C12.2359986,12.2351728 11.7347093,10.5642084 11.8461069,9.32026818 L11.8832395,8.93037648 L12.0689022,8.96750903 C12.403095,9.02320784 12.9786495,9.24600309 13.2571435,9.41309954 C13.9997944,9.85869005 14.3339873,10.471377 14.6496139,11.9938112 C14.7424452,12.4394018 14.8724091,12.9592573 14.9281079,13.1263538 C15.0209393,13.4048479 15.3736985,14.0546674 15.6707588,14.4631253 C15.8749878,14.7601857 15.7450239,14.9087158 15.2808671,14.8715833 C14.5753488,14.7973182 13.628469,14.1474987 13.015782,13.3120165 Z" id="路径" fill-rule="nonzero"></path>
            <path d="M25.1395571,21.3883445 C21.4634354,19.9030428 20.1637964,18.6219701 20.1637964,16.4497163 C20.1637964,16.1340897 20.1823627,15.8741619 20.1823627,15.8741619 C20.200929,15.8741619 20.3308929,15.9855596 20.4979893,16.1155235 C21.2406402,16.7096441 22.0761224,16.9695719 24.3969063,17.3037648 C25.7522441,17.5079938 26.5320275,17.656524 27.2375458,17.8978855 C29.4840646,18.6405364 30.876535,20.1629706 31.2107278,22.2238267 C31.3035592,22.8179474 31.2478604,23.9504899 31.0993302,24.5446106 C30.9693663,25.0087674 30.5980409,25.8628159 30.5052095,25.8813822 C30.4866433,25.8813822 30.4495107,25.7885508 30.4495107,25.6400206 C30.4123782,24.8602372 30.0224865,24.1175864 29.372667,23.542032 C28.5928836,22.8736462 27.5903049,22.3723569 25.1395571,21.3883445 Z" id="路径" fill-rule="nonzero"></path>
            <path d="M22.5402792,22.0010315 C22.5031466,21.7225374 22.4103153,21.3697782 22.3546165,21.2212481 L22.2617851,20.942754 L22.4288815,21.146983 C22.6702431,21.4254771 22.8559058,21.7596699 23.0230022,22.2238267 C23.1529661,22.5765859 23.1529661,22.6879835 23.1529661,23.2635379 C23.1529661,23.820526 23.1343998,23.9504899 23.0230022,24.2661166 C22.8373395,24.7674059 22.6145442,25.120165 22.2432188,25.5100567 C21.5748331,26.1970088 20.7022183,26.5683342 19.4582781,26.7354306 C19.2354829,26.7539969 18.6042297,26.8096957 18.0472415,26.8468283 C16.6547712,26.9210933 15.7264576,27.0696235 14.8909754,27.3666839 C14.7795778,27.4038164 14.6681801,27.4409489 14.6496139,27.4223827 C14.6124813,27.3852501 15.1880357,27.0510572 15.6521925,26.828262 C16.302012,26.5126354 16.9703978,26.3455389 18.4371332,26.0856111 C19.1612178,25.9742135 19.9038686,25.8256833 20.0895314,25.7514183 C21.9275922,25.1758638 22.8373395,23.746261 22.5402792,22.0010315 Z" id="路径" fill-rule="nonzero"></path>
            <path d="M24.2298098,24.9902011 C23.7470868,23.9319237 23.6356892,22.929345 23.895617,21.9824652 C23.9327495,21.8896338 23.9698821,21.7968025 24.0070146,21.7968025 C24.0441471,21.7968025 24.1555448,21.8525013 24.2669424,21.9267664 C24.4897376,22.0752965 24.9538944,22.3352243 26.1421358,22.9850438 C27.6460038,23.8019598 28.5000522,24.433213 29.0941729,25.1572976 C29.6140285,25.7885508 29.9296551,26.5126354 30.0781853,27.4038164 C30.1710167,27.9051057 30.1153178,29.1119134 29.9853539,29.6132027 C29.576896,31.1913357 28.6485824,32.4538422 27.2932446,33.1779268 C27.0890156,33.2893244 26.9219192,33.3635895 26.9033529,33.3635895 C26.8847866,33.3635895 26.9590517,33.1779268 27.0704494,32.9551315 C27.5160399,32.0082517 27.5717387,31.0985044 27.2375458,30.0773595 C27.0333168,29.4461062 26.6062926,28.6848891 25.7522441,27.4038164 C24.7310992,25.9185147 24.4897376,25.528623 24.2298098,24.9902011 Z" id="路径" fill-rule="nonzero"></path>
            <path d="M10.3979377,30.6714801 C11.7718418,29.5203713 13.4613725,28.7034554 15.0209393,28.4435276 C15.6893251,28.33213 16.8033013,28.3692625 17.4159883,28.5363589 C18.4000007,28.7962867 19.2911817,29.3532749 19.7553385,30.0402269 C20.200929,30.7086127 20.405158,31.2841671 20.609387,32.5652398 C20.683652,33.0665291 20.7764834,33.5863847 20.7950497,33.6977824 C20.9435798,34.3661681 21.2406402,34.8860237 21.6119656,35.1645178 C22.18752,35.591542 23.1900987,35.6101083 24.174111,35.2387829 C24.3412075,35.1830841 24.4897376,35.1273853 24.4897376,35.1459515 C24.5268702,35.1830841 24.0255809,35.5172769 23.691388,35.6843734 C23.2272312,35.9257349 22.8559058,36 22.3546165,36 C21.4634354,36 20.7022183,35.5358432 20.0895314,34.6075297 C19.9595675,34.4218669 19.6996397,33.8834451 19.4768444,33.3821558 C18.8270249,31.8782878 18.492832,31.4326973 17.7316149,30.9314079 C17.0632291,30.5043837 16.2091807,30.4115523 15.5593612,30.727179 C14.7053127,31.1356369 14.4825174,32.2310469 15.0766381,32.8994327 C15.3179996,33.1779268 15.7635901,33.400722 16.1349156,33.4564208 C16.8218676,33.5492522 17.4159883,33.0108303 17.4159883,32.3238783 C17.4159883,31.8782878 17.2488919,31.61836 16.8033013,31.414131 C16.2091807,31.1542032 15.5593612,31.4512635 15.5779274,32.0268179 C15.5779274,32.2681795 15.6893251,32.4167096 15.9306866,32.5281073 C16.0792168,32.6023724 16.0792168,32.6023724 15.9678191,32.5838061 C15.4293973,32.4724085 15.2994334,31.8040227 15.7264576,31.3769985 C16.2463132,30.8571429 17.3417232,31.0799381 17.7130486,31.8040227 C17.8615788,32.101083 17.8801451,32.6952037 17.7501812,33.0665291 C17.4345546,33.8834451 16.5433735,34.3104693 15.6336262,34.0691078 C15.0209393,33.9020113 14.7610115,33.7349149 14.0183606,32.9736978 C12.7187217,31.6369263 12.2174323,31.3769985 10.3608052,31.0985044 L10.0080461,31.0428056 L10.3979377,30.6714801 Z" id="路径" fill-rule="nonzero"></path>
            <path d="M0.63207906,0.798349665 C4.95802027,6.05260444 11.6233117,14.2217638 11.9575045,14.6673543 C12.2359986,15.0386797 12.124601,15.3914389 11.6604442,15.6513667 C11.4005164,15.7998969 10.8620945,15.948427 10.6021667,15.948427 C10.3051064,15.948427 9.95234724,15.7998969 9.71098571,15.5585353 C9.54388927,15.3914389 8.81980469,14.3331614 7.18597282,11.7895823 C5.94203264,9.84012378 4.88375518,8.22485817 4.86518891,8.2062919 C4.79092383,8.16915936 4.79092383,8.16915936 7.05600892,12.2166065 C8.48561181,14.7601857 8.94976859,15.669933 8.94976859,15.7813306 C8.94976859,16.0226921 8.87550351,16.152656 8.57844317,16.4868489 C8.07715384,17.043837 7.85435859,17.6750903 7.68726214,18.9932955 C7.50159943,20.4600309 7.00031011,21.4997421 5.57070722,23.2635379 C4.73522501,24.3032491 4.60526111,24.4889118 4.40103213,24.915936 C4.14110433,25.4357916 4.06683925,25.732852 4.0297067,26.4012378 C3.99257416,27.1067561 4.06683925,27.5523466 4.27106823,28.2207323 C4.45673094,28.814853 4.66095993,29.2047447 5.16224925,29.9659618 C5.58927349,30.6343476 5.84920129,31.1356369 5.84920129,31.3212996 C5.84920129,31.4698298 5.88633383,31.4698298 6.5547196,31.3212996 C8.15141893,30.9499742 9.46962419,30.318721 10.1937088,29.5389376 C10.6392993,29.0562145 10.7506969,28.7962867 10.7506969,28.127901 C10.7506969,27.7008767 10.7321306,27.6080454 10.620733,27.3481176 C10.4350703,26.9396596 10.0823111,26.6054667 9.32109402,26.0856111 C8.31851537,25.3986591 7.89149113,24.841671 7.7800935,24.0990201 C7.68726214,23.4677669 7.79865977,23.0407427 8.35564791,21.8710676 C8.93120232,20.6642599 9.07973249,20.1629706 9.17256385,18.9375967 C9.22826266,18.1578133 9.32109402,17.8421867 9.54388927,17.6008252 C9.7852508,17.3408974 9.98947978,17.248066 10.5650342,17.1738009 C11.511914,17.043837 12.124601,16.8024755 12.607324,16.3383187 C13.0343483,15.948427 13.220011,15.5585353 13.2385773,14.9829809 L13.2571435,14.5559567 L13.015782,14.2960289 C12.1431672,13.2934502 0.0565246504,0 0.000825836601,0 C-0.0177404347,0 0.279319906,0.352759154 0.63207906,0.798349665 Z M6.33192434,27.1995874 C6.53615332,26.8468283 6.4247557,26.4012378 6.09056281,26.1784425 C5.7749362,25.9742135 5.29221315,26.0670449 5.29221315,26.3455389 C5.29221315,26.419804 5.32934569,26.4940691 5.44074332,26.5312017 C5.60783976,26.624033 5.62640603,26.7168644 5.49644213,26.9210933 C5.36647823,27.1253223 5.36647823,27.310985 5.53357468,27.4409489 C5.79350247,27.6451779 6.14626163,27.5337803 6.33192434,27.1995874 Z" id="形状"></path>
            <path d="M13.8512642,17.4337287 C13.4056737,17.5636926 12.9786495,18.0464157 12.8486856,18.5291387 C12.7744205,18.8261991 12.811553,19.3646209 12.9415169,19.5317174 C13.1457459,19.7916452 13.3314086,19.8659103 13.8512642,19.8659103 C14.8724091,19.8659103 15.7450239,19.4203198 15.8378552,18.8818979 C15.9306866,18.4363074 15.5407949,17.8236204 15.002373,17.5451264 C14.723879,17.3965962 14.1483245,17.3408974 13.8512642,17.4337287 Z M15.0395056,18.3620423 C15.1880357,18.139247 15.1323369,17.8978855 14.8538429,17.7307891 C14.3525535,17.4151625 13.5913364,17.6750903 13.5913364,18.1578133 C13.5913364,18.3991748 13.9812281,18.6591026 14.3525535,18.6591026 C14.5939151,18.6591026 14.9281079,18.5105725 15.0395056,18.3620423 Z" id="形状"></path>
        </g>
    </g>
</svg>