<?xml version="1.0" encoding="UTF-8"?>
<svg width="36px" height="36px" viewBox="0 0 36 36" version="1.1" xmlns="http://www.w3.org/2000/svg" xmlns:xlink="http://www.w3.org/1999/xlink">
    <title>USD Coint</title>
    <g id="USD-Coint" stroke="none" stroke-width="1" fill="none" fill-rule="evenodd">
        <g id="编组-10">
            <path d="M18,36 C27.9755031,36 36,27.9755031 36,18 C36,8.02449689 27.9755031,0 18,0 C8.02449689,0 0,8.02449689 0,18 C0,27.9755031 8.02449689,36 18,36" id="Fill-61" fill="#356BA6"></path>
            <path d="M22.9496211,20.8495152 C22.9496211,18.2248717 21.3750306,17.3248961 18.2248717,16.9484805 C15.9746884,16.6483257 15.524945,16.0485049 15.524945,14.9994297 C15.524945,13.9498656 16.275332,13.2747617 17.7746395,13.2747617 C19.1248472,13.2747617 19.8752342,13.7249939 20.2496945,14.8498411 C20.3254664,15.0752017 20.5503381,15.2243013 20.7752098,15.2243013 L21.975829,15.2243013 C22.2764727,15.2243013 22.5018332,14.9994297 22.5018332,14.698786 L22.5018332,14.623014 C22.2011895,12.9726515 20.8509818,11.6982157 19.1268026,11.5486271 L19.1268026,9.74867603 C19.1268026,9.44803237 18.9014421,9.2231607 18.5274707,9.14934412 L17.4021347,9.14934412 C17.101491,9.14934412 16.8766193,9.3742158 16.8028027,9.74867603 L16.8028027,11.473344 C14.5526194,11.7734988 13.1271285,13.2732951 13.1271285,15.1485294 C13.1271285,17.6235844 14.626436,18.5993319 17.7765949,18.9737921 C19.8771896,19.3482524 20.5522935,19.7979957 20.5522935,20.9986149 C20.5522935,22.1992341 19.5027294,23.0239266 18.0772385,23.0239266 C16.1276989,23.0239266 15.4530838,22.1992341 15.2277233,21.0743869 C15.1524402,20.7737432 14.9270797,20.6241547 14.702208,20.6241547 L13.4277722,20.6241547 C13.1271285,20.6241547 12.9022569,20.8495152 12.9022569,21.1501589 L12.9022569,21.225442 C13.2029005,23.1011651 14.4015643,24.4513729 16.8766193,24.8253442 L16.8766193,26.6252953 C16.8766193,26.925939 17.101491,27.1512995 17.4759512,27.2251161 L18.6012873,27.2251161 C18.9014421,27.2251161 19.1268026,26.9997556 19.2006192,26.6252953 L19.2006192,24.8253442 C21.4488471,24.4494175 22.9496211,22.874338 22.9496211,20.8495152" id="Fill-62" fill="#FFFFFE"></path>
            <path d="M22.1234622,5.32457022 C21.8228185,5.17498167 21.5241303,5.32457022 21.4488471,5.62472502 C21.3730751,5.700497 21.3730751,5.77431357 21.3730751,5.92536868 L21.3730751,6.97493278 C21.3730751,7.27557644 21.5979468,7.57426469 21.8228185,7.72580864 C27.672904,9.82640341 30.6734744,16.351104 28.4975965,22.1254176 C27.3722604,25.2755764 24.8972054,27.6748595 21.8228185,28.7997067 C21.5226637,28.9492952 21.3730751,29.1741669 21.3730751,29.5505825 L21.3730751,30.5996578 C21.3730751,30.9003015 21.5226637,31.125662 21.8228185,31.1994786 C21.8985905,31.1994786 22.048179,31.1994786 22.1234622,31.1237066 C29.2479835,28.8735233 33.1485294,21.2992586 30.8988349,14.1732707 C29.5486271,9.90021998 26.2493686,6.67428913 22.1234622,5.32457022 Z M14.1747372,28.7244236 C8.32465169,26.6238288 5.32408137,20.0986394 7.50044811,14.3243258 C8.62529535,11.1741669 11.1003503,8.7748839 14.1747372,7.65003666 C14.4753809,7.50044811 14.6249694,7.27557644 14.6249694,6.8991608 L14.6249694,5.85008555 C14.6249694,5.54944189 14.4753809,5.32457022 14.1747372,5.25075365 C14.0994541,5.25075365 13.9498656,5.25075365 13.8740936,5.32603677 C6.75006111,7.57622009 2.84951522,15.1504848 5.09920969,22.2769615 C6.44941745,26.4761956 9.67485946,29.7016377 13.8740936,31.0518454 C14.1747372,31.2009451 14.4734255,31.0518454 14.5491975,30.7512018 C14.6249694,30.6754298 14.6249694,30.6016132 14.6249694,30.4505581 L14.6249694,29.400994 C14.6249694,29.1741669 14.4000978,28.8754787 14.1747372,28.7244236 L14.1747372,28.7244236 Z" id="Fill-63" fill="#FFFFFE"></path>
        </g>
    </g>
</svg>