<?xml version="1.0" encoding="UTF-8"?>
<svg width="36px" height="36px" viewBox="0 0 36 36" version="1.1" xmlns="http://www.w3.org/2000/svg" xmlns:xlink="http://www.w3.org/1999/xlink">
    <title>XPR</title>
    <g id="XPR" stroke="none" stroke-width="1" fill="none" fill-rule="evenodd">
        <g id="编组-6">
            <path d="M36,18 C36,27.9407947 27.9412835,36 18,36 C8.05871649,36 0,27.9407947 0,18 C0,8.05871649 8.05871649,0 18,0 C27.9412835,0 36,8.05871649 36,18" id="Fill-26" fill="#181F23"></path>
            <path d="M26.9117623,7.56742077 L30.5532169,7.56742077 L22.9750414,15.0717797 C20.2291627,17.7883273 15.7806143,17.7883273 13.0347356,15.0717797 L5.4516716,7.56742077 L9.09801472,7.56742077 L14.8557073,13.2659624 C16.6023736,14.9881861 19.4025149,14.9881861 21.1491812,13.2659624 L26.9117623,7.56742077" id="Fill-27" fill="#FFFFFE"></path>
            <path d="M9.04864072,28.4320904 L5.4022976,28.4320904 L13.0298471,20.8837348 C15.7757258,18.1671872 20.2242742,18.1671872 22.9701529,20.8837348 L30.5977024,28.4320904 L26.9562478,28.4320904 L21.1491812,22.6846636 C19.4025149,20.9624399 16.6023736,20.9624399 14.8557073,22.6846636 L9.04864072,28.4320904" id="Fill-28" fill="#FFFFFE"></path>
        </g>
    </g>
</svg>