<svg width="24" height="24" viewBox="0 0 24 24" fill="none" xmlns="http://www.w3.org/2000/svg">
<path d="M6.48769 14.3337H3.76335C3.76335 14.3337 3.63617 14.3337 3.5 14.5835C3.5 14.8332 3.62718 14.9538 3.62718 14.9538C3.75427 15.0743 6.99622 19.6297 6.99622 19.6297C6.99622 19.6297 7.25957 20 7.77719 20C8.16771 20 8.42198 19.7503 8.42198 19.7503L11.6731 15.0743C11.6731 15.0743 11.8003 14.8246 11.6731 14.5835C11.6731 14.3337 11.4098 14.3337 11.4098 14.3337H8.82159V9.90746C8.82159 9.90746 9.33921 6.34234 10.6379 6.34234C10.6379 6.34234 6.3606 6.34234 6.3606 10.0366V14.3423L6.48769 14.3337V14.3337ZM17.5123 9.66635L20.2366 9.66635C20.2366 9.66635 20.3638 9.66635 20.5 9.29603C20.5 9.04631 20.3728 8.92571 20.3728 8.92571C20.2456 8.80512 17.0037 4.37032 17.0037 4.37032C17.0037 4.37032 16.7403 4 16.2227 4C15.8322 4 15.5779 4.24972 15.5779 4.24972L12.3359 8.92571C12.3359 8.92571 12.2087 9.17544 12.3359 9.41655C12.3359 9.66627 12.4631 9.66627 12.4631 9.66627H15.0603V14.2131C15.0603 14.2131 14.5427 17.7783 13.1169 17.7783C13.1169 17.7783 17.3942 17.7783 17.3942 14.084V9.65782L17.5123 9.66635V9.66635Z" fill="#0EAD98"/>
</svg>
