<svg xmlns="http://www.w3.org/2000/svg" xmlns:xlink="http://www.w3.org/1999/xlink" fill="none" version="1.1" width="44" height="44" viewBox="0 0 44 44"><defs><clipPath id="master_svg0_284_116988"><rect x="0" y="0" width="44" height="44" rx="0"/></clipPath></defs><g clip-path="url(#master_svg0_284_116988)"><g><path d="M9.625,37.94562388305664L9.625,24.74929988305664L14.9722,24.74929988305664L17.1875,25.43680388305664L26.8125,24.74929988305664L28.326,24.62319988305664C29.8188,24.49879988305664,30.4062,26.51250388305664,29.0806,27.21020388305664L22.7848,30.52380388305664C22.3322,30.76210388305664,22.1187,31.29300388305664,22.2805,31.77830388305664C22.488,32.40100388305664,23.223,32.66610388305664,23.7803,32.31919388305664L35.9837,24.72369988305664C37.3234,23.88989988305664,39.0804,24.24040028305664,39.9975,25.524403883056642C40.946799999999996,26.85330388305664,40.654399999999995,28.69800388305664,39.3408,29.66830388305664L26.0098,39.51482388305664C24.5462,40.59592388305664,22.6333,40.85852388305664,20.932499999999997,40.21182388305664L15.8904,38.29472388305664C15.2833,38.06392388305664,14.6394,37.94562388305664,13.99,37.94562388305664L9.625,37.94562388305664Z" fill="#03D3BE" fill-opacity="1" style="mix-blend-mode:passthrough"/></g><g><path d="M4.8125,25.0937C4.8125,24.144500999999998,5.58201,23.375,6.53125,23.375C7.48049,23.375,8.25,24.144500999999998,8.25,25.0938L8.25,37.4688C8.25,38.418,7.48049,39.1875,6.53125,39.1875C5.58201,39.1875,4.8125,38.418,4.8125,37.4688L4.8125,25.0937Z" fill="#D6DBDF" fill-opacity="1" style="mix-blend-mode:passthrough"/></g><g><path d="M24.0625,27.5C30.5173,27.5,35.75,22.2673,35.75,15.8125C35.75,9.357669999999999,30.5173,4.125,24.0625,4.125C17.6077,4.125,12.375,9.357669999999999,12.375,15.8125C12.375,22.2673,17.6077,27.5,24.0625,27.5ZM25.588,12.2964C24.8721,11.580400000000001,23.7113,11.580400000000001,22.9953,12.2964L20.5464,14.7453C19.8304,15.4613,19.8304,16.6221,20.5464,17.338L22.9953,19.787C23.7113,20.5029,24.8721,20.5029,25.588,19.787L28.037,17.338C28.7529,16.6221,28.7529,15.4613,28.037,14.7453L25.588,12.2964Z" fill-rule="evenodd" fill="#D6DBDF" fill-opacity="1" style="mix-blend-mode:passthrough"/></g></g></svg>