<svg xmlns="http://www.w3.org/2000/svg" xmlns:xlink="http://www.w3.org/1999/xlink" fill="none" version="1.1" width="44" height="44" viewBox="0 0 44 44"><defs><clipPath id="master_svg0_284_117593"><rect x="0" y="0" width="44" height="44" rx="0"/></clipPath></defs><g clip-path="url(#master_svg0_284_117593)"><g><path d="M8.555339967651367,6.111330032348633C6.530289967651367,6.111330032348633,4.888669967651367,7.7529500323486324,4.888669967651367,9.777990032348633L4.888669967651367,14.666900032348632C4.888669967651367,16.610030032348632,6.400139967651367,18.200130032348632,8.311499967651367,18.325630032348634L8.497499967651368,14.605600032348633C8.530019967651366,13.955200032348632,9.066899967651366,13.444400032348632,9.718189967651366,13.444400032348632L34.28176996765137,13.444400032348632C34.93306996765136,13.444400032348632,35.469969967651366,13.955200032348632,35.502469967651365,14.605600032348633L35.68846996765137,18.32553003234863C37.599669967651366,18.199830032348633,39.11086996765137,16.609830032348633,39.11086996765137,14.666900032348632L39.11086996765137,9.777990032348633C39.11086996765137,7.7529500323486324,37.469269967651364,6.111330032348633,35.44416996765136,6.111330032348633L8.555339967651367,6.111330032348633Z" fill-rule="evenodd" fill="#D6DBDF" fill-opacity="1" style="mix-blend-mode:passthrough"/></g><g><path d="M9.777830123901367,16.500099606323243C9.777830123901367,15.824999606323242,10.325000123901367,15.277799606323242,11.000100123901367,15.277799606323242L33.00013012390137,15.277799606323242C33.67513012390137,15.277799606323242,34.22233012390137,15.824999606323242,34.22233012390137,16.500099606323243L34.22233012390137,32.99999960632324C34.22233012390137,35.70009960632324,32.03343012390137,37.88889960632324,29.333430123901366,37.88889960632324L14.666700123901368,37.88889960632324C11.966700123901367,37.88889960632324,9.777830123901367,35.70009960632324,9.777830123901367,33.000099606323246L9.777830123901367,16.500099606323243Z" fill="#03D3BE" fill-opacity="1" style="mix-blend-mode:passthrough"/></g><g><path d="M21.136004310302734,21.642099281738282C21.613304310302734,21.16480028173828,22.387204310302735,21.16480028173828,22.864504310302735,21.642099281738282L26.531104310302734,25.308696281738282C27.008404310302737,25.78599628173828,27.008404310302737,26.559896281738283,26.531104310302734,27.037196281738282C26.053804310302734,27.514496281738282,25.279904310302733,27.514496281738282,24.802604310302733,27.037196281738282L23.222404310302736,25.45699628173828L23.222404310302736,32.28412628173828C23.222404310302736,32.95912628173828,22.675204310302735,33.50632628173828,22.000204310302735,33.50632628173828C21.325194310302734,33.50632628173828,20.778004310302734,32.95912628173828,20.778004310302734,32.28412628173828L20.778004310302734,25.45699628173828L19.197804310302736,27.037196281738282C18.720504310302733,27.514496281738282,17.946600310302735,27.514496281738282,17.469299310302734,27.037196281738282C16.992000310302735,26.559896281738283,16.992000310302735,25.78599628173828,17.469299310302734,25.308696281738282L21.136004310302734,21.642099281738282Z" fill-rule="evenodd" fill="#FFFFFF" fill-opacity="1" style="mix-blend-mode:passthrough"/></g></g></svg>